<svg width="134" height="64" viewBox="0 0 134 64" fill="none" xmlns="http://www.w3.org/2000/svg">
<path fill-rule="evenodd" clip-rule="evenodd" d="M35.6538 19.5562C36.2455 16.7366 40.967 11.3509 46.9383 13.6513C52.8432 15.8792 57.8968 26.8438 64.3934 24.8091C70.89 22.7079 73.1844 20.6732 74.5006 19.8883C73.9753 21.7238 65.7097 30.8468 56.1942 29.3374C46.6787 27.7615 47.0712 21.2649 41.8908 19.4294C38.087 18.7049 35.6598 19.5623 35.6598 19.5623L35.6538 19.5562Z" fill="white"/>
<path fill-rule="evenodd" clip-rule="evenodd" d="M14.6548 22.9011C17.2812 19.0309 23.5786 13.4521 32.1099 19.8823C40.6412 26.3125 50.0238 34.5177 56.9793 34.3185C63.9348 34.1192 67.0865 30.9072 69.9061 29.7238C68.5959 34.4513 60.3242 39.4385 50.0903 39.3057C39.7899 39.1064 33.2933 31.6921 26.9235 27.2966C22.7212 24.477 18.7846 21.1925 14.6548 22.9011V22.9011Z" fill="white"/>
<path fill-rule="evenodd" clip-rule="evenodd" d="M8.48389 34.0589C8.48389 34.0589 13.0122 25.2679 20.4265 28.2204C27.8409 31.1064 39.7835 43.3147 44.8371 43.5743C49.8243 43.9004 53.7609 43.9668 60.7163 40.6883C58.0899 44.3653 53.1692 49.286 44.3118 49.1532C35.4545 49.0868 21.6099 36.9449 17.7337 34.0589C14.0567 31.3057 10.0537 33.6664 8.48389 34.0589V34.0589Z" fill="white"/>
<path fill-rule="evenodd" clip-rule="evenodd" d="M0.019043 59.3872C31.059 41.0143 59.4726 22.5087 84.9338 0C72.333 5.51245 11.3036 46.6536 0.019043 59.3872Z" fill="white"/>
<path fill-rule="evenodd" clip-rule="evenodd" d="M127.452 60.3713H129.16V60.1721L128.309 58.1374C128.309 58.0931 128.287 58.0488 128.243 58.0045C128.198 58.0045 128.176 58.0267 128.176 58.0709L128.11 58.1374L127.325 60.2385V60.3713H127.458H127.452ZM128.436 55.9758C128.502 55.7766 128.635 55.6498 128.695 55.5834C128.762 55.517 128.895 55.517 129.088 55.517C129.281 55.517 129.354 55.517 129.414 55.5834C129.48 55.6498 129.613 55.7826 129.673 55.9758L132.233 62.1464C132.366 62.4725 132.493 62.7381 132.56 62.8709C132.692 63.0038 132.819 63.1306 133.018 63.197C133.085 63.197 133.151 63.2634 133.278 63.2634C133.477 63.3298 133.604 63.3962 133.604 63.523C133.604 63.5894 133.604 63.6558 133.538 63.7223H132.62C132.227 63.6558 131.835 63.6558 131.503 63.6558C131.243 63.6558 130.845 63.6558 130.452 63.7223C130.06 63.7887 129.794 63.7887 129.728 63.7887C129.595 63.7887 129.468 63.7223 129.402 63.7223C129.335 63.6558 129.335 63.5894 129.335 63.523C129.335 63.4566 129.335 63.3902 129.402 63.3238C129.468 63.2574 129.535 63.2574 129.661 63.1909H129.794C129.927 63.1909 130.054 63.1245 130.12 63.1245C130.12 63.0581 130.187 62.9917 130.187 62.9253V62.7925C130.142 62.7482 130.12 62.7039 130.12 62.6596L129.595 61.283C129.529 61.1502 129.462 61.0838 129.335 61.0234C129.203 61.0234 128.943 60.957 128.55 60.957H127.699C127.373 60.957 127.174 61.0234 127.107 61.0898C126.975 61.0898 126.908 61.2226 126.848 61.4159C126.781 61.6755 126.649 61.9411 126.649 62.074C126.582 62.2732 126.582 62.4 126.582 62.5328C126.582 62.6657 126.582 62.7985 126.649 62.8589C126.715 62.9253 126.848 62.9917 127.041 63.0581C127.107 63.1245 127.174 63.1245 127.24 63.1245C127.307 63.1909 127.373 63.1909 127.44 63.1909C127.699 63.2574 127.832 63.3902 127.832 63.517C127.832 63.5834 127.766 63.6498 127.766 63.7162C127.699 63.7162 127.633 63.7826 127.506 63.7826H127.373C126.981 63.7162 126.522 63.6498 126.063 63.6498C125.737 63.6498 125.405 63.7162 125.079 63.7826H124.095C123.569 63.7162 123.044 63.7162 122.452 63.7162C121.927 63.7162 121.402 63.7162 120.877 63.7826H120.677C120.544 63.7826 120.478 63.7826 120.418 63.7162C120.351 63.6498 120.351 63.5834 120.351 63.517C120.351 63.4506 120.351 63.3842 120.418 63.3842C120.484 63.3177 120.55 63.3177 120.744 63.2513H120.877C121.076 63.2513 121.203 63.1849 121.269 63.0521C121.335 62.9857 121.402 62.8528 121.402 62.6596L121.335 58.1977V58.0649C121.335 58.0649 121.269 58.0649 121.269 57.9985C121.269 58.0428 121.247 58.0649 121.203 58.0649V58.1313L119.168 63.1185C119.035 63.3177 118.969 63.4445 118.908 63.5109C118.842 63.5774 118.775 63.6438 118.649 63.6438C118.522 63.6438 118.449 63.5774 118.389 63.5109C118.323 63.4445 118.256 63.3117 118.129 63.1185L116.095 57.8717L116.028 57.8053H115.962V57.9381L115.763 60.4317V61.4159C115.763 62.0075 115.763 62.4 115.829 62.6657C115.895 62.8649 115.962 63.0581 116.089 63.1245C116.155 63.1909 116.288 63.2574 116.547 63.2574H116.614C116.747 63.3238 116.873 63.3238 116.94 63.3902C117.006 63.3902 117.006 63.4566 117.006 63.523C117.006 63.5894 117.006 63.6558 116.94 63.7223C116.873 63.7887 116.741 63.7887 116.614 63.7887C116.614 63.7887 116.415 63.7887 116.221 63.7223H114.778C114.519 63.7887 114.386 63.7887 114.386 63.7887H113.728C113.728 63.7887 113.462 63.7887 113.136 63.7223H110.969C110.576 63.7887 110.31 63.7887 110.244 63.7887C110.111 63.7887 109.984 63.7887 109.984 63.7223C109.918 63.7223 109.852 63.6558 109.852 63.523C109.852 63.4566 109.918 63.3902 109.918 63.3238C109.984 63.3238 110.117 63.2574 110.178 63.2574H110.31C110.443 63.1909 110.57 63.1909 110.637 63.1245C110.703 63.0581 110.703 62.9917 110.703 62.9253V62.7925L110.637 62.726L110.111 61.283C110.045 61.1502 109.978 61.0838 109.852 61.0838C109.719 61.0174 109.459 61.0174 109.067 61.0174H108.282C107.956 61.0174 107.69 61.0174 107.624 61.0838C107.491 61.1502 107.424 61.2166 107.358 61.4098C107.292 61.7358 107.225 61.9351 107.159 62.1343C107.092 62.2672 107.092 62.4604 107.092 62.5268C107.092 62.726 107.092 62.7925 107.159 62.8528C107.225 62.9857 107.358 63.0521 107.551 63.1125C107.618 63.1125 107.684 63.1789 107.75 63.1789C107.817 63.1789 107.883 63.1789 107.95 63.2453C108.209 63.3117 108.342 63.3781 108.342 63.5049C108.342 63.6317 108.342 63.7042 108.276 63.7042C108.209 63.7706 108.143 63.7706 108.016 63.7706H107.883C107.491 63.7042 107.032 63.7042 106.573 63.7042C106.247 63.7042 105.915 63.7042 105.589 63.7706H105.523C105.39 63.7706 105.323 63.7706 105.263 63.7042C105.197 63.7042 105.197 63.6377 105.197 63.5713C105.197 63.3721 105.263 63.3117 105.523 63.2453L105.589 63.1789H105.722C105.855 63.1125 105.981 62.9796 106.048 62.9132C106.181 62.7804 106.247 62.5872 106.307 62.4543L108.934 56.0242C109.067 55.8249 109.133 55.6981 109.194 55.6317C109.26 55.5653 109.393 55.4989 109.586 55.4989C109.779 55.4989 109.912 55.5653 109.978 55.5653C110.045 55.6317 110.111 55.7645 110.178 56.0242L112.738 62.1283C112.87 62.5208 112.997 62.72 113.13 62.9132C113.197 63.046 113.39 63.1789 113.523 63.2392C113.782 63.3057 114.247 63.3057 114.507 63.2392C114.766 63.1728 114.899 63.1064 114.966 63.04C115.032 62.9072 115.098 62.714 115.098 62.3819L115.358 57.7208V57.1955C115.358 56.8694 115.358 56.6038 115.292 56.5374C115.225 56.4045 115.092 56.3381 114.966 56.2777H114.833C114.766 56.2113 114.7 56.2113 114.633 56.2113C114.434 56.2113 114.307 56.1449 114.307 56.0121C114.307 55.8792 114.374 55.8128 114.44 55.8128C114.507 55.7464 114.573 55.7464 114.64 55.7464H114.839C115.231 55.7464 115.624 55.8128 115.956 55.8128C116.155 55.8128 116.415 55.8128 116.614 55.7464H117.073C117.139 55.7464 117.272 55.7464 117.338 55.8128C117.405 55.8792 117.471 55.9457 117.471 56.0121L119.24 60.5404C119.24 60.5847 119.262 60.6289 119.307 60.6732H119.44C119.44 60.6068 119.506 60.5404 119.506 60.474L121.408 56.0121C121.408 55.8792 121.474 55.8128 121.541 55.8128C121.673 55.7464 121.8 55.7464 122 55.7464H124.101C124.233 55.7464 124.36 55.7464 124.427 55.8128C124.493 55.8128 124.493 55.8792 124.493 56.0121C124.493 56.1449 124.427 56.2113 124.167 56.2113C124.101 56.2113 124.034 56.2113 124.034 56.2777H123.835C123.702 56.3442 123.575 56.4106 123.509 56.5374C123.443 56.6702 123.443 56.8634 123.443 57.1955V57.2619L123.575 62.6415C123.575 62.8408 123.642 62.9675 123.708 63.1004C124.034 63.36 124.952 63.2996 125.218 63.1004C125.35 63.034 125.477 62.9675 125.544 62.8408C125.61 62.7079 125.743 62.5811 125.803 62.3819L128.43 55.9517L128.436 55.9758ZM30.069 57.6181C30.069 57.5517 30.0026 57.4853 30.0026 57.4189C29.7429 56.8272 29.5437 56.5011 29.4109 56.4347C29.278 56.3683 29.2116 56.3019 29.0848 56.3019C28.8856 56.2355 28.8252 56.1691 28.8252 56.0423C28.8252 55.9155 28.8252 55.9094 28.8916 55.843C28.958 55.7766 29.0244 55.7766 29.0909 55.7766H29.2237C29.749 55.843 30.2078 55.843 30.7331 55.843C31.1256 55.843 31.4576 55.843 31.8501 55.7766H32.5082C32.5746 55.7766 32.7075 55.7766 32.7678 55.843C32.8343 55.843 32.8343 55.9094 32.8343 55.9758C32.8343 56.1087 32.8343 56.1751 32.7678 56.1751C32.7014 56.2415 32.5686 56.3079 32.4418 56.3743H32.2426C32.0433 56.4408 31.9165 56.5072 31.9165 56.634V56.7004C31.9829 56.7668 31.9829 56.8332 31.9829 56.8332L33.752 60.9691V61.0355H33.9512V60.9026L35.3943 57.4249C35.4607 57.2921 35.5271 57.1653 35.5271 57.0325C35.5935 56.8996 35.5935 56.7728 35.5935 56.7064C35.5935 56.64 35.5935 56.5736 35.5271 56.5072C35.4607 56.4408 35.3278 56.4408 35.201 56.3743C35.1346 56.3743 35.0682 56.3079 35.0018 56.3079C34.8026 56.2415 34.6758 56.1751 34.6758 56.0483C34.6758 55.9215 34.6758 55.8491 34.7422 55.8491C34.8086 55.7826 34.9414 55.7826 35.0682 55.7826H35.5271C35.7867 55.7826 35.9195 55.8491 36.1188 55.8491C36.2516 55.8491 36.4448 55.7826 36.6441 55.7826H37.1029C37.2358 55.7826 37.3626 55.7826 37.429 55.8491C37.429 55.8491 37.4954 55.9155 37.4954 56.0483C37.4954 56.1811 37.3626 56.2475 37.1693 56.3079C36.9701 56.3743 36.8433 56.4408 36.7769 56.4408C36.6441 56.5736 36.5173 56.7004 36.4509 56.8996C36.318 57.0989 36.1248 57.4913 35.8592 58.1494L34.2169 61.8868C34.1505 62.086 34.0176 62.4121 33.8909 62.8045C33.5648 63.5894 33.2992 63.9215 33.106 63.9215C32.8463 63.9215 32.6471 63.5955 32.3814 62.9374C32.2486 62.6113 32.1218 62.3457 31.989 62.086L30.0871 57.6242L30.069 57.6181ZM40.635 56.0423C40.7014 55.843 40.7678 55.7162 40.8343 55.6498C40.9671 55.5834 41.0939 55.517 41.2931 55.517C41.426 55.517 41.5527 55.5834 41.6192 55.5834C41.6856 55.6498 41.752 55.7826 41.8788 56.0423L44.3724 62.1464C44.5052 62.5389 44.638 62.7381 44.7648 62.9313C44.8976 63.0642 45.0244 63.197 45.1573 63.2574H45.4169C45.6765 63.3238 45.7429 63.3902 45.7429 63.517C45.7429 63.6438 45.7429 63.6498 45.6765 63.7162C45.6101 63.7826 45.5437 63.7826 45.4169 63.7826C45.3505 63.7826 45.1573 63.7826 44.7588 63.7162H42.6577C42.2652 63.7826 41.9995 63.7826 41.8727 63.7826C41.746 63.7826 41.6735 63.7826 41.6131 63.7162C41.5467 63.7162 41.4803 63.6498 41.4803 63.517C41.4803 63.4506 41.5467 63.3842 41.6131 63.3177C41.6795 63.3177 41.746 63.2513 41.8727 63.2513H41.9392C42.1384 63.1849 42.1988 63.1849 42.2652 63.1185C42.3316 63.0521 42.3316 62.9857 42.3316 62.9192V62.7864C42.3316 62.7864 42.3316 62.72 42.2652 62.72L41.7399 61.277C41.7399 61.1441 41.6071 61.0777 41.5407 61.0777C41.4078 61.0113 41.1482 61.0113 40.6893 61.0113H39.9044C39.5784 61.0113 39.3792 61.0113 39.2463 61.0777C39.1799 61.1442 39.0471 61.2106 38.9807 61.4038C38.9143 61.7298 38.8478 61.9291 38.7814 62.1283C38.7814 62.2611 38.715 62.4543 38.715 62.5208C38.715 62.72 38.7814 62.7864 38.8478 62.8468C38.9143 62.9796 38.9807 63.046 39.1739 63.1064C39.2403 63.1064 39.3067 63.1728 39.3731 63.1728C39.4395 63.1728 39.506 63.1728 39.5724 63.2392C39.832 63.3057 39.9648 63.3721 39.9648 63.4989C39.9648 63.6257 39.9648 63.6981 39.8984 63.6981C39.832 63.7645 39.7656 63.7645 39.6992 63.7645H39.5663C39.1075 63.6981 38.6486 63.6981 38.2561 63.6981C37.8637 63.6981 37.5316 63.6981 37.2056 63.7645H37.1392C37.0063 63.7645 36.9399 63.7645 36.8795 63.6981C36.8795 63.6981 36.8131 63.6317 36.8131 63.5653C36.8131 63.366 36.946 63.3057 37.1392 63.2392C37.2056 63.2392 37.2056 63.1728 37.272 63.1728H37.3384C37.4712 63.1064 37.598 62.9736 37.6644 62.9072C37.7973 62.7743 37.8637 62.5811 37.9241 62.4483L40.6169 56.0181L40.635 56.0423ZM39.5844 60.4377H41.1603C41.2267 60.4377 41.2931 60.4377 41.2931 60.3713C41.3374 60.3713 41.3595 60.3492 41.3595 60.3049V60.2385L41.2931 60.1721L40.5082 58.2038C40.4418 58.1374 40.4418 58.0709 40.4418 58.0709L40.3754 58.0045C40.3754 58.0488 40.3532 58.0709 40.309 58.0709C40.2647 58.0709 40.2426 58.1152 40.2426 58.2038L39.518 60.2385C39.518 60.2385 39.518 60.3049 39.4516 60.3049V60.3713H39.518C39.518 60.4377 39.5844 60.4377 39.5844 60.4377ZM46.2139 61.6211C46.2139 61.5547 46.2139 61.4219 46.2803 61.4219C46.3467 61.3555 46.4131 61.3555 46.4795 61.3555C46.6124 61.3555 46.7392 61.4883 46.8056 61.8143C46.872 62.0136 46.9384 62.1404 46.9384 62.2732C47.1376 62.6657 47.3309 62.9977 47.5965 63.1909C47.8561 63.3902 48.1882 63.4506 48.6471 63.4506C49.1724 63.4506 49.5648 63.3842 49.8969 63.1245C50.2229 62.8649 50.3558 62.5328 50.3558 62.1404C50.3558 61.8143 50.2229 61.5487 50.0297 61.2891C49.7701 61.0294 49.2448 60.7638 48.5203 60.4377C47.669 60.0453 47.0773 59.7132 46.7512 59.3872C46.4916 58.9947 46.2924 58.5359 46.2924 58.0106C46.2924 57.3525 46.6184 56.7608 47.2101 56.2415C47.8018 55.7826 48.5203 55.517 49.4441 55.517C49.7701 55.517 50.1686 55.5834 50.4946 55.6498C50.8207 55.7162 51.0863 55.7826 51.2192 55.9094C51.2856 55.9758 51.352 56.0423 51.4184 56.1087V57.6181C51.4184 57.6845 51.4184 57.7509 51.352 57.8174C51.352 57.8838 51.2856 57.8838 51.2192 57.8838C51.0199 57.8838 50.8931 57.6845 50.6939 57.2921V57.1592C50.4946 56.7668 50.3014 56.5011 50.1022 56.3079C49.9029 56.1751 49.6433 56.1087 49.3173 56.1087C48.9248 56.1087 48.5927 56.2415 48.3331 56.4347C48.1339 56.634 48.0071 56.8936 48.0071 57.2196C48.0071 57.6785 48.3995 58.0709 49.1905 58.3366C49.3897 58.4694 49.5829 58.5359 49.6493 58.5962C50.5671 58.9223 51.1588 59.3208 51.4848 59.7796C51.8773 60.1721 52.0101 60.6309 52.0101 61.2226C52.0101 62.0075 51.7505 62.6657 51.0924 63.1909C50.4343 63.7162 49.5829 63.9758 48.5988 63.9758C48.1399 63.9758 47.7475 63.9758 47.2886 63.843C46.8961 63.7102 46.6305 63.5834 46.4373 63.4506C46.3044 63.3841 46.3044 63.3177 46.238 63.1909V61.6151L46.2139 61.6211ZM52.6441 59.7857C52.6441 59.1275 52.7769 58.6023 53.0365 58.077C53.2961 57.4853 53.6946 57.0264 54.1535 56.634C54.6124 56.2415 55.1377 55.9758 55.6629 55.7826C56.2546 55.6498 56.9127 55.523 57.5648 55.523C58.0901 55.523 58.549 55.5894 59.0078 55.6558C59.4667 55.7887 59.7927 55.8551 59.9256 55.9819C59.992 56.0483 60.0584 56.1811 60.1248 56.4408C60.1912 56.7668 60.1912 57.0325 60.1912 57.3585C60.1912 57.4913 60.1912 57.5577 60.1248 57.5577C60.0584 57.6242 59.992 57.6906 59.9256 57.6906C59.7927 57.6906 59.666 57.4913 59.5331 57.2317C59.4003 57.0989 59.3339 57.0325 59.3339 56.9721C59.0743 56.646 58.8086 56.4468 58.549 56.2475C58.2833 56.1147 58.0237 56.0483 57.6976 56.0483C56.9127 56.0483 56.2546 56.4408 55.7293 57.0989C55.2041 57.8234 54.9444 58.7411 54.9444 59.7917C54.9444 60.9087 55.2041 61.76 55.7293 62.4845C56.1882 63.1426 56.8463 63.5351 57.6312 63.5351C58.0237 63.5351 58.4161 63.4023 58.7482 63.2091C59.0743 62.9434 59.3399 62.6838 59.5331 62.2913C59.5995 62.2249 59.666 62.0921 59.7324 61.9653C59.8652 61.6392 59.992 61.5064 60.1248 61.5064C60.1912 61.5064 60.2576 61.5728 60.2576 61.6392C60.3241 61.7057 60.3241 61.8989 60.3241 62.2309V63.0159C60.2576 63.1487 60.1912 63.2755 60.1248 63.3419C59.8652 63.5411 59.5331 63.7343 59.0743 63.8672C58.6154 63.9336 58.0901 64 57.4984 64C56.0554 64 54.872 63.6075 54.0207 62.8166C53.1029 62.0921 52.6441 61.0475 52.6441 59.7977V59.7857ZM65.7037 56.0483C65.0456 56.0483 64.4599 56.3079 64.0614 56.966C63.669 57.5577 63.4033 58.4091 63.4033 59.3932C63.4033 60.637 63.6629 61.6211 64.1278 62.3457C64.6531 63.1306 65.2448 63.5291 65.9633 63.5291C66.6818 63.5291 67.2735 63.203 67.672 62.6113C68.0644 61.9532 68.3301 61.1683 68.3301 60.1177C68.3301 58.874 68.0644 57.8898 67.6056 57.1653C67.0803 56.3804 66.4886 56.0483 65.7037 56.0483ZM65.9029 55.523C66.4946 55.523 67.0863 55.6558 67.6116 55.8491C68.1369 55.9819 68.6622 56.3079 69.0546 56.634C69.5135 57.0264 69.906 57.4853 70.1716 58.077C70.4312 58.6023 70.5641 59.1275 70.5641 59.7857C70.5641 60.3774 70.4312 60.9691 70.1716 61.4943C69.912 62.0196 69.5135 62.4785 69.0546 62.8709C68.5958 63.2634 68.1369 63.5291 67.6116 63.7223C67.0199 63.9215 66.4946 63.9819 65.8426 63.9819C65.2509 63.9819 64.6592 63.9155 64.1339 63.7223C63.6086 63.523 63.1497 63.2634 62.6909 62.8709C62.232 62.4785 61.8395 62.0196 61.5739 61.4943C61.3143 60.9026 61.1814 60.3774 61.1814 59.7857C61.1814 59.194 61.3143 58.6023 61.5739 58.077C61.8335 57.5517 62.232 57.0264 62.6909 56.634C63.1497 56.3079 63.6086 55.9758 64.1339 55.7826C64.6592 55.6498 65.2509 55.523 65.9029 55.523ZM75.4184 56.966C75.4184 56.7668 75.4184 56.7004 75.2856 56.64C75.2192 56.5072 75.1527 56.5072 74.9595 56.5072H74.5007C74.4343 56.5072 74.3678 56.5072 74.3678 56.4408C74.3014 56.4408 74.3014 56.3743 74.3014 56.3079C74.3014 56.2415 74.3678 56.1751 74.4343 56.1087C74.5007 56.0423 74.6939 55.9758 75.026 55.9094C75.5512 55.7766 76.0101 55.7102 76.5354 55.6498C77.1271 55.5834 77.6524 55.5834 78.1776 55.5834C79.8863 55.5834 81.1965 55.9759 82.1143 56.7004C83.0984 57.4853 83.6237 58.4694 83.6237 59.7192C83.6237 60.3109 83.4909 60.8362 83.2312 61.3615C82.9716 61.8868 82.5731 62.3457 82.0478 62.7381C81.589 63.1306 81.0637 63.3962 80.472 63.523C79.8803 63.7223 79.1618 63.7826 78.3709 63.7826C78.0448 63.7826 77.7127 63.7826 77.2539 63.7162H75.2856C74.8931 63.7826 74.6939 63.7826 74.6939 63.7826C74.6275 63.7826 74.561 63.7826 74.4946 63.7162C74.4282 63.6498 74.4282 63.5834 74.4282 63.517C74.4282 63.3841 74.561 63.3177 74.7543 63.2574H74.8871C75.0863 63.1909 75.2131 63.1909 75.346 63.0581C75.4124 62.9917 75.4124 62.8589 75.4124 62.6657V56.96L75.4184 56.966ZM77.5195 56.8332V62.08C77.5195 62.5389 77.586 62.8649 77.7188 63.0641C77.8516 63.197 78.1112 63.2634 78.5037 63.2634C79.355 63.2634 80.0131 62.9374 80.5384 62.2792C81.1301 61.6211 81.3897 60.7698 81.3897 59.7192C81.3897 58.6023 81.1301 57.6845 80.6048 57.0928C80.0795 56.4347 79.4214 56.1087 78.5701 56.1087C78.1112 56.1087 77.8456 56.1087 77.7188 56.2415C77.586 56.3079 77.5195 56.5011 77.5195 56.8332V56.8332ZM87.6267 56.0483C87.6931 55.8491 87.7595 55.7223 87.8863 55.6558C87.9527 55.5894 88.0856 55.523 88.2788 55.523C88.4116 55.523 88.5384 55.5894 88.6048 55.5894C88.6712 55.6558 88.7376 55.7887 88.8644 56.0483L91.358 62.1525C91.4909 62.5449 91.6237 62.7441 91.7505 62.9374C91.8833 63.0702 92.0101 63.203 92.2093 63.2634H92.4086C92.6682 63.3298 92.801 63.3962 92.801 63.523C92.801 63.6498 92.7346 63.6558 92.6682 63.7223C92.6018 63.7887 92.5354 63.7887 92.4086 63.7887C92.3422 63.7887 92.149 63.7887 91.7505 63.7223H89.6493C89.2569 63.7887 88.9912 63.7887 88.8644 63.7887C88.7376 63.7887 88.6652 63.7887 88.6048 63.7223C88.5384 63.7223 88.5384 63.6558 88.5384 63.523C88.5384 63.4566 88.5384 63.3902 88.6048 63.3238C88.6712 63.3238 88.7376 63.2574 88.8644 63.2574H88.9309C89.1301 63.1909 89.2569 63.1909 89.2569 63.1245C89.3233 63.0581 89.3233 62.9917 89.3233 62.9253V62.726L88.7316 61.283C88.7316 61.1502 88.6652 61.0838 88.5324 61.0838C88.3995 61.0174 88.1399 61.0174 87.681 61.0174H86.8961C86.5701 61.0174 86.3709 61.0174 86.238 61.0838C86.1716 61.1502 86.1052 61.2166 86.0388 61.4098C85.906 61.7358 85.8395 61.9351 85.7792 62.1343C85.7792 62.2672 85.7127 62.4604 85.7127 62.5268C85.7127 62.726 85.7792 62.7925 85.8456 62.8528C85.912 62.9857 86.0448 63.0521 86.1716 63.1125C86.238 63.1125 86.3044 63.1789 86.3709 63.1789C86.4373 63.1789 86.5037 63.1789 86.6305 63.2453C86.8901 63.3117 86.9565 63.3781 86.9565 63.5049C86.9565 63.6317 86.9565 63.7042 86.8901 63.7042C86.8901 63.7706 86.7573 63.7706 86.6909 63.7706H86.558C86.0992 63.7042 85.7067 63.7042 85.2478 63.7042C84.9218 63.7042 84.5897 63.7042 84.2637 63.7706H84.1309C84.0644 63.7706 83.9316 63.7706 83.9316 63.7042C83.8652 63.7042 83.7988 63.6377 83.7988 63.5713C83.7988 63.3721 83.9316 63.3117 84.1248 63.2453C84.1912 63.2453 84.1912 63.1789 84.2577 63.1789H84.3905C84.5233 63.1125 84.5897 62.9796 84.7165 62.9132C84.7829 62.7804 84.8494 62.5872 84.9761 62.4543L87.6026 56.0242L87.6267 56.0483ZM86.6426 60.4438H88.2184C88.2184 60.4438 88.2848 60.4438 88.2848 60.3774C88.3291 60.3774 88.3512 60.3552 88.3512 60.3109V60.2445L88.2848 60.1781L87.4999 58.2098C87.4999 58.1434 87.4335 58.077 87.4335 58.077C87.4335 58.077 87.4335 58.0106 87.3671 58.0106C87.3671 58.0548 87.3449 58.077 87.3007 58.077V58.2098L86.5158 60.2445V60.3109C86.4493 60.3109 86.4493 60.3774 86.4493 60.3774H86.5158C86.5158 60.4438 86.5822 60.4438 86.6486 60.4438H86.6426ZM103.965 57.2921V57.4249C103.965 57.4913 103.965 57.5577 103.898 57.6242C103.898 57.6242 103.832 57.6906 103.699 57.6906C103.566 57.6906 103.44 57.4913 103.307 57.2317C103.24 57.1653 103.174 57.0989 103.174 57.0325C102.914 56.7064 102.649 56.4408 102.389 56.3079C102.129 56.1087 101.797 56.0483 101.405 56.0483C100.62 56.0483 99.9618 56.4408 99.4365 57.0989C98.9112 57.8234 98.6516 58.7411 98.6516 59.8521C98.6516 60.9026 98.9112 61.8204 99.4365 62.4785C99.9618 63.1366 100.686 63.5291 101.471 63.5291C101.797 63.5291 101.997 63.4626 102.129 63.3298C102.262 63.1306 102.329 62.8709 102.329 62.3457V61.4943C102.329 61.0355 102.329 60.7698 102.262 60.643C102.196 60.5102 102.129 60.3834 101.997 60.3834C101.93 60.317 101.797 60.317 101.604 60.2506C101.405 60.2506 101.344 60.2506 101.278 60.1842C101.212 60.1842 101.212 60.1177 101.212 60.0513C101.212 59.9849 101.212 59.9185 101.278 59.8521C101.344 59.7857 101.411 59.7857 101.538 59.7857H101.797C102.323 59.8521 102.848 59.8521 103.373 59.8521C103.898 59.8521 104.424 59.8521 104.949 59.7857H105.082C105.148 59.7857 105.215 59.7857 105.281 59.8521C105.281 59.9185 105.347 59.9849 105.347 60.0513C105.347 60.1842 105.215 60.2506 105.021 60.3109H104.762C104.629 60.3774 104.563 60.4438 104.502 60.5706C104.436 60.637 104.436 60.8966 104.436 61.2951V62.8045C104.436 63.1306 104.17 63.4626 103.518 63.6558C102.86 63.9155 102.075 63.9819 101.091 63.9819C99.7142 63.9819 98.5309 63.6559 97.746 62.8649C96.8946 62.1404 96.4358 61.1562 96.4358 59.9125C96.4358 59.2543 96.5686 58.6687 96.8282 58.1434C97.0878 57.5517 97.4863 57.0928 97.9452 56.634C98.4041 56.3079 98.9293 56.0423 99.521 55.8491C100.113 55.6498 100.704 55.523 101.357 55.523C101.815 55.523 102.274 55.5894 102.667 55.6558C103.059 55.7223 103.391 55.7887 103.584 55.9155C103.784 55.9819 103.844 56.2415 103.91 56.5736V56.7728L103.977 57.2981L103.965 57.2921ZM107.968 60.4438H109.544C109.61 60.4438 109.677 60.4438 109.677 60.3774C109.677 60.3774 109.743 60.3774 109.743 60.3109L109.677 60.2445V60.1781L108.825 58.2098V58.077C108.759 58.077 108.759 58.0106 108.759 58.0106C108.759 58.077 108.692 58.077 108.692 58.077C108.692 58.1434 108.626 58.1434 108.626 58.2098L107.841 60.2445V60.3774C107.885 60.4216 107.93 60.4438 107.974 60.4438H107.968Z" fill="white"/>
<path fill-rule="evenodd" clip-rule="evenodd" d="M78.8234 46.9072C78.7811 46.3155 78.292 45.4883 77.0905 45.4883C76.0581 45.4883 75.249 46.2008 75.249 47.6075C75.249 49.0143 76.0158 49.7147 77.0785 49.7147C78.0868 49.7147 78.6543 49.1049 78.8234 48.2355H77.9841C77.8815 48.7245 77.5615 48.9902 77.0966 48.9902C76.3902 48.9902 76.1003 48.3442 76.1003 47.6196C76.1003 46.4845 76.692 46.2189 77.0966 46.2189C77.7909 46.2189 77.9177 46.6717 77.9841 46.9132H78.8234V46.9072ZM85.7366 45.597H82.7902V49.606H85.8332V48.8996H83.6113V47.8611H85.5675V47.1547H83.6113V46.3094H85.7366V45.603V45.597ZM92.2936 48.3925H92.2815L90.6875 45.597H89.806V49.606H90.5849V46.7442H90.597L92.2332 49.606H93.0724V45.597H92.2875V48.3925H92.2936ZM98.9109 46.3094H100.124V45.603H96.8641V46.3094H98.0777V49.6121H98.917V46.3094H98.9109ZM103.964 49.6121H104.786V48.0423H105.649C106.271 48.0423 106.301 48.2536 106.301 48.803C106.301 49.2136 106.337 49.4249 106.392 49.6121H107.321V49.5034C107.14 49.437 107.14 49.2921 107.14 48.7064C107.14 47.9577 106.959 47.837 106.633 47.6921C107.032 47.5592 107.255 47.1789 107.255 46.7381C107.255 46.394 107.062 45.603 105.993 45.603H103.964V49.6121V49.6121ZM104.786 47.366V46.2913H105.83C106.319 46.2913 106.416 46.6053 106.416 46.8166C106.416 47.2151 106.204 47.366 105.77 47.366H104.786ZM111.029 47.6075C111.029 49.4913 112.423 49.7208 112.955 49.7208C113.486 49.7208 114.881 49.4913 114.881 47.6075C114.881 45.7238 113.486 45.4943 112.955 45.4943C112.423 45.4943 111.029 45.7238 111.029 47.6075ZM111.868 47.6075C111.868 46.4845 112.502 46.2068 112.955 46.2068C113.408 46.2068 114.041 46.4845 114.041 47.6075C114.041 48.7306 113.408 49.0083 112.955 49.0083C112.502 49.0083 111.868 48.7306 111.868 47.6075Z" fill="white"/>
</svg>
